<?xml version="1.0" standalone="no"?><!DOCTYPE svg PUBLIC "-//W3C//DTD SVG 1.1//EN" "http://www.w3.org/Graphics/SVG/1.1/DTD/svg11.dtd"><svg t="1680525605491" class="icon" viewBox="0 0 1024 1024" version="1.1" xmlns="http://www.w3.org/2000/svg" p-id="9338" xmlns:xlink="http://www.w3.org/1999/xlink" width="200" height="200"><path d="M612.072727 523.636364h-200.145454c-16.290909 0-27.927273 11.636364-27.927273 27.927272s11.636364 27.927273 27.927273 27.927273h200.145454c16.290909 0 27.927273-11.636364 27.927273-27.927273s-11.636364-27.927273-27.927273-27.927272zM328.145455 509.672727c-20.945455 0-39.563636 18.618182-39.563637 39.563637s18.618182 39.563636 39.563637 39.563636c20.945455 0 39.563636-18.618182 39.563636-39.563636s-16.290909-39.563636-39.563636-39.563637zM574.836364 416.581818h114.036363c4.654545 0 11.636364 0 16.290909 2.327273-11.636364-60.509091-39.563636-107.054545-74.472727-107.054546H390.981818c-32.581818 0-62.836364 46.545455-72.145454 107.054546 6.981818-2.327273 16.290909-2.327273 23.272727-2.327273h232.727273z" fill="#d81e06" p-id="9339"></path><path d="M968.145455 214.109091C930.909091 146.618182 877.381818 93.090909 809.890909 55.854545 742.4 18.618182 663.272727 0 542.254545 0h-62.836363c-118.690909 0-197.818182 18.618182-265.309091 55.854545C146.618182 93.090909 93.090909 146.618182 55.854545 214.109091 18.618182 281.6 0 360.727273 0 481.745455v62.836363c0 118.690909 18.618182 197.818182 55.854545 265.309091C93.090909 877.381818 146.618182 930.909091 214.109091 968.145455c67.490909 37.236364 146.618182 55.854545 265.309091 55.854545h62.836363c118.690909 0 197.818182-18.618182 265.309091-55.854545 67.490909-37.236364 121.018182-90.763636 158.254546-158.254546 37.236364-67.490909 55.854545-146.618182 55.854545-265.309091v-62.836363c2.327273-121.018182-16.290909-200.145455-53.527272-267.636364z m-207.127273 465.454545c0 25.6-20.945455 46.545455-46.545455 46.545455s-46.545455-20.945455-46.545454-46.545455v-2.327272H358.4v2.327272c0 25.6-20.945455 46.545455-46.545455 46.545455s-46.545455-20.945455-46.545454-46.545455v-37.236363c-20.945455-23.272727-30.254545-58.181818-30.254546-95.418182 0-51.2 18.618182-95.418182 55.854546-116.363636 9.309091-86.109091 51.2-151.272727 104.727273-151.272728h239.709091c51.2 0 93.090909 62.836364 104.727272 151.272728 37.236364 20.945455 55.854545 65.163636 55.854546 116.363636 0 37.236364-9.309091 72.145455-30.254546 95.418182l-4.654545 37.236363z" fill="#d81e06" p-id="9340"></path><path d="M695.854545 509.672727c-20.945455 0-39.563636 18.618182-39.563636 39.563637s18.618182 39.563636 39.563636 39.563636c20.945455 0 39.563636-18.618182 39.563637-39.563636s-18.618182-39.563636-39.563637-39.563637z" fill="#d81e06" p-id="9341"></path></svg>